<?xml version="1.0" encoding="UTF-8" standalone="no"?>
<svg
   xmlns:dc="http://purl.org/dc/elements/1.1/"
   xmlns:cc="http://creativecommons.org/ns#"
   xmlns:rdf="http://www.w3.org/1999/02/22-rdf-syntax-ns#"
   xmlns:svg="http://www.w3.org/2000/svg"
   xmlns="http://www.w3.org/2000/svg"
   version="1.1"
   id="svg849"
   width="192"
   height="48"
   viewBox="0 0 192 48">
  <metadata
     id="metadata855">
    <rdf:RDF>
      <cc:Work
         rdf:about="">
        <dc:format>image/svg+xml</dc:format>
        <dc:type
           rdf:resource="http://purl.org/dc/dcmitype/StillImage" />
        <dc:title></dc:title>
      </cc:Work>
    </rdf:RDF>
  </metadata>
  <defs
     id="defs853" />
  <g
     id="g857">
    <path
       style="fill:#3f5c9e;fill-opacity:1;stroke-width:0.0272392"
       d="m 161.83925,29.73818 c -0.38429,-0.08733 -0.58911,-0.272297 -0.81392,-0.735031 -0.0803,-0.165201 -0.19546,-0.450075 -0.25601,-0.633054 l -0.11009,-0.33269 v -3.903152 -3.903152 l 0.0884,2.45e-4 c 0.0486,1.36e-4 0.22913,0.01241 0.40115,0.02729 0.55813,0.04828 0.81779,0.171623 1.03515,0.491708 0.16259,0.239418 0.28219,0.51243 0.58269,1.330127 0.42898,1.167259 0.57884,1.422926 0.89878,1.533283 0.29101,0.100378 1.22936,0.121905 1.83382,0.04207 0.27625,-0.03649 0.55164,-0.120639 0.61159,-0.186891 0.0475,-0.05247 0.0471,-0.06339 -0.0119,-0.320244 -0.0802,-0.348975 -0.27007,-1.017965 -0.58653,-2.066412 -0.37177,-1.231648 -0.63767,-2.30034 -0.63767,-2.562887 0,-0.317908 0.52222,-1.588442 1.3868,-3.374017 0.68945,-1.423902 1.11739,-2.437858 1.12485,-2.665249 l 0.004,-0.122384 -0.26969,-0.08884 c -0.40649,-0.133911 -1.49956,-0.400932 -3.08906,-0.754622 -1.71274,-0.381109 -2.45267,-0.565293 -2.97084,-0.739495 l -0.38792,-0.130416 -0.007,-1.4333333 -0.007,-1.4333337 0.10223,-0.021177 c 0.28913,-0.059897 1.59524,0.00427 2.61789,0.1286172 2.9383,0.3572693 7.42878,1.4693813 8.31902,2.0602881 0.16973,0.1126647 0.37399,0.3740357 0.39979,0.5115927 0.0408,0.217284 9.6e-4,0.369822 -0.21306,0.816502 -0.22118,0.461606 -0.27602,0.61243 -0.26106,0.717984 0.0135,0.09525 0.0823,0.09641 0.27545,0.0047 0.3897,-0.185119 1.21971,-0.870304 3.03834,-2.5081964 1.64687,-1.4832098 2.42873,-2.1723583 3.42675,-3.0204175 1.89619,-1.6112836 3.39283,-2.7396632 4.10073,-3.0917189 0.35795,-0.1780139 0.50457,-0.1865456 0.78935,-0.04593 0.38074,0.1879964 0.83174,0.7115007 1.09091,1.2662835 0.18345,0.3927124 0.22462,0.6388296 0.18027,1.0777304 -0.0221,0.2183414 -0.0204,0.2285789 0.0644,0.4008768 0.20392,0.4142166 0.75274,0.85677 2.81714,2.271673 1.58777,1.0882265 2.65781,1.8758681 3.15342,2.3212011 0.1587,0.142597 0.21061,0.208037 0.23403,0.295011 0.0277,0.103025 0.074,0.157827 0.26357,0.311928 0.0545,0.04429 0.0638,0.08649 0.086,0.389628 0.0265,0.361478 7.1e-4,0.745506 -0.0632,0.939781 -0.0688,0.20924 -0.34526,0.617267 -0.57479,0.848352 -0.25486,0.256583 -0.42178,0.34916 -0.57704,0.320033 -0.63632,-0.119376 -5.0399,-2.762479 -7.01596,-4.2110983 -0.70916,-0.519882 -1.31733,-0.8886738 -1.46548,-0.8886738 -0.20317,0 -1.48592,1.0579917 -4.55204,3.7544511 -1.85174,1.628482 -3.1085,2.675501 -3.31509,2.761819 -0.51892,0.216819 -1.37677,-0.199415 -1.71366,-0.831475 -0.0446,-0.08371 -0.11393,-0.243175 -0.15405,-0.354373 -0.18992,-0.52651 -0.3878,-0.601092 -0.70325,-0.265059 -0.3235,0.344608 -0.59309,0.823996 -1.75825,3.126555 l -0.91812,1.814359 0.2714,0.973274 c 0.41338,1.482467 0.57796,2.200018 0.78466,3.420951 0.16447,0.971574 0.2267,1.554966 0.22917,2.148516 10e-4,0.354824 -0.01,0.563601 -0.0353,0.666313 -0.12193,0.487034 -0.42638,0.760151 -0.98242,0.881318 -0.44363,0.09667 -0.62234,0.10543 -2.48847,0.121942 l -1.87655,0.0166 -0.016,0.815893 c -0.0141,0.717843 -0.023,0.841465 -0.0742,1.028691 -0.14412,0.526846 -0.42399,0.806375 -0.94806,0.946908 -0.27694,0.07426 -1.09881,0.09778 -1.35807,0.03887 z"
       id="path980" />
    <path
       style="fill:#3f5c9e;fill-opacity:1;stroke-width:0.0544785"
       d="m 183.58151,16.887299 c -0.37396,-0.02421 -1.30407,-0.08238 -2.06693,-0.129284 -3.84353,-0.236293 -5.01773,-0.428266 -5.30547,-0.867403 -0.13305,-0.20306 -0.15605,-0.537332 -0.0813,-1.180663 0.13888,-1.194634 0.19604,-1.218903 2.85746,-1.213275 3.19699,0.0068 6.73924,0.428206 7.19863,0.856472 0.2397,0.223465 0.40172,0.566353 0.40172,0.850185 0,0.710984 -0.81407,1.523082 -1.69255,1.688453 -0.31844,0.05994 -0.31618,0.05995 -1.3116,-0.0045 z"
       id="path982" />
    <path
       style="fill:#3f5c9e;fill-opacity:1;stroke-width:0.0544785"
       d="m 175.17781,28.150874 c -0.51563,-0.07917 -0.83975,-0.26974 -1.00063,-0.588317 -0.19378,-0.383719 -0.49274,-1.883279 -0.73378,-3.680533 -0.33615,-2.506512 -0.31998,-2.841663 0.15461,-3.203647 0.35151,-0.268112 0.76513,-0.422023 1.21562,-0.452337 0.86226,-0.05802 1.1983,0.175225 1.46714,1.018357 0.31569,0.990048 0.63092,2.88268 0.71192,4.274242 0.0845,1.452106 -0.0493,2.247163 -0.40949,2.433284 -0.34443,0.177959 -0.96757,0.266174 -1.40539,0.198951 z"
       id="path984" />
    <path
       style="fill:#3f5c9e;fill-opacity:1;stroke-width:0.0544785"
       d="m 180.47288,27.263824 c -0.37245,-0.105246 -0.50322,-0.212533 -0.65831,-0.540069 -0.57374,-1.211758 -1.19511,-5.282888 -0.97017,-6.356389 0.0733,-0.349784 0.1847,-0.476719 0.57673,-0.657156 0.23511,-0.108213 0.35832,-0.124862 0.924,-0.124862 0.56568,0 0.68889,0.01665 0.924,0.124862 0.14921,0.06867 0.32707,0.177264 0.39524,0.241312 0.4026,0.378222 0.89049,3.350738 0.90404,5.507894 0.005,0.78766 -0.0121,1.121018 -0.0619,1.208029 -0.26237,0.458791 -1.37052,0.783764 -2.03364,0.596379 z"
       id="path986" />
    <path
       style="fill:#3f5c9e;fill-opacity:1;stroke-width:0.0544785"
       d="m 185.22813,28.399095 c -0.32492,-0.101526 -0.56827,-0.255097 -1.13991,-0.719345 l -0.49955,-0.405705 0.39863,-1.152082 c 1.17565,-3.39775 2.34422,-6.171328 2.86599,-6.802364 0.23099,-0.279363 0.53448,-0.412031 0.94366,-0.412521 0.86236,-10e-4 1.91298,0.501738 2.00003,0.957101 0.0762,0.398433 -0.65359,2.56467 -1.64917,4.895448 -1.02161,2.39173 -1.67092,3.408229 -2.3267,3.642434 -0.24585,0.0878 -0.30342,0.08751 -0.59298,-0.003 z"
       id="path988" />
    <path
       style="fill:#3f5c9e;fill-opacity:1;stroke-width:0.0544785"
       d="m 173.57646,33.097953 c -0.57306,-0.102297 -0.8072,-0.363551 -0.95625,-1.066998 -0.19469,-0.918855 -0.009,-1.700152 0.42198,-1.777064 0.55204,-0.09848 7.31499,-0.434083 11.65437,-0.57834 2.07397,-0.06895 4.11045,-0.06945 4.7044,-0.0012 0.54397,0.06253 0.68107,0.144402 0.87086,0.520043 0.12162,0.240705 0.13599,0.335371 0.13599,0.896107 0,0.565458 -0.0136,0.653508 -0.13894,0.897481 -0.15989,0.311297 -0.27244,0.36511 -0.95628,0.457219 -1.29626,0.174596 -3.05887,0.28273 -7.17249,0.440023 -1.58556,0.06063 -3.33565,0.135389 -3.88909,0.166137 -1.44801,0.08045 -4.32424,0.1091 -4.67455,0.04657 z"
       id="path990" />
    <path
       style="fill:#3f5c9e;fill-opacity:1;stroke-width:0.0544785"
       d="m 130.47203,29.67025 c -1.02552,-0.108489 -1.94544,-0.318432 -2.39308,-0.546146 -0.36434,-0.185343 -0.39273,-0.277821 -0.41458,-1.350512 -0.0269,-1.321795 0.14127,-3.639654 0.61571,-8.485038 0.10385,-1.060521 0.18333,-1.933697 0.17664,-1.94039 -0.007,-0.0067 -0.46337,-0.114191 -1.01483,-0.238885 -2.60719,-0.589525 -3.16002,-0.993601 -3.15644,-2.307132 0.002,-0.914307 0.27988,-1.147749 1.35863,-1.143389 0.70179,0.0028 1.15616,0.06043 2.61085,0.330936 1.7965,0.334065 3.09895,0.716893 3.32616,0.97765 0.32518,0.373212 0.2993,1.420177 -0.17534,7.09252 -0.16444,1.965101 -0.21637,2.846181 -0.20358,3.453945 0.0252,1.196247 0.10622,1.286864 1.21381,1.357207 0.85785,0.05448 1.69052,0.17704 1.90981,0.281096 0.30783,0.146078 0.37469,0.334175 0.37469,1.054142 0,0.559192 -0.0144,0.654052 -0.13598,0.894634 -0.16528,0.327104 -0.36866,0.443032 -0.96316,0.54901 -0.47002,0.08379 -2.41037,0.09641 -3.12931,0.02035 z"
       id="path992" />
    <path
       style="fill:#3f5c9e;fill-opacity:1;stroke-width:0.0544785"
       d="m 131.05616,11.09317 c -0.82648,-0.118846 -2.05767,-0.467815 -2.85594,-0.809488 -0.83949,-0.3593207 -1.47819,-0.8652063 -1.66929,-1.3221764 -0.15975,-0.3819978 -0.0153,-1.1894824 0.27111,-1.5157053 0.23537,-0.268071 0.44676,-0.3439645 0.95805,-0.3439645 0.66523,0 1.41208,0.1794598 2.86093,0.6874505 1.79196,0.6282913 2.45227,1.1591255 2.34356,1.8840387 -0.0799,0.532627 -0.49566,1.156168 -0.88143,1.321838 -0.18547,0.07965 -0.76803,0.135244 -1.02699,0.09801 z"
       id="path994" />
    <path
       style="fill:#3f5c9e;fill-opacity:1;stroke-width:0.0544785"
       d="m 140.03098,32.503635 c -0.95776,-0.0461 -1.26076,-0.110707 -1.53655,-0.327644 -0.46095,-0.362586 -0.69013,-1.110155 -0.85515,-2.789453 -0.12454,-1.267325 -0.25492,-3.991555 -0.26345,-5.504514 -0.008,-1.484351 0.036,-1.826237 0.26701,-2.057237 0.43245,-0.432456 2.33819,-0.449945 2.72316,-0.02499 0.0627,0.06921 0.13925,0.268415 0.17311,0.450442 0.13995,0.752454 0.28342,2.590882 0.3884,4.976944 0.0309,0.703027 0.0704,1.455688 0.0876,1.672579 l 0.0314,0.394348 h 3.82541 3.82541 l 0.0445,-0.421544 c 0.0244,-0.23185 0.0449,-1.106894 0.0454,-1.944544 9.1e-4,-1.386823 -0.0108,-1.585008 -0.13075,-2.216508 l -0.13175,-0.693508 h -1.92499 c -2.77609,0 -4.22251,-0.12377 -4.83553,-0.413776 -0.49091,-0.232238 -0.5829,-0.493381 -0.50411,-1.431029 0.0558,-0.664235 0.16008,-0.991297 0.35718,-1.120438 0.0766,-0.05019 0.36293,-0.127061 0.6363,-0.170833 0.27337,-0.04377 0.55173,-0.115152 0.61856,-0.158621 0.10893,-0.07085 0.13683,-0.13559 0.20247,-0.4699 0.0198,-0.100835 -0.0562,-1.604112 -0.10817,-2.14076 l -0.032,-0.330092 -2.26763,-0.20373 c -2.91886,-0.262239 -3.43506,-0.349549 -3.71363,-0.628116 -0.0836,-0.08356 -0.16807,-0.243768 -0.18986,-0.359949 -0.0367,-0.195751 0.0709,-2.253 0.12059,-2.306163 0.0125,-0.01336 1.06837,-0.140277 2.34639,-0.282042 1.27802,-0.141765 2.47398,-0.29805 2.6577,-0.347301 0.40065,-0.107404 0.6042,-0.296417 0.68085,-0.632208 0.0492,-0.215657 -0.0194,-2.188689 -0.0934,-2.686958 l -0.0246,-0.165297 -1.4547,0.126687 c -1.83532,0.159836 -2.97671,0.148196 -3.45035,-0.03519 -0.57788,-0.223737 -0.81058,-0.6632662 -0.81535,-1.5400307 -0.004,-0.6892531 0.15983,-1.0613989 0.55754,-1.2683924 0.58798,-0.3060193 6.06083,-1.2244351 10.68435,-1.7929721 0.86757,-0.1066814 1.89304,-0.2422181 2.27884,-0.3011927 0.38579,-0.058975 0.81589,-0.1072265 0.95578,-0.1072265 0.71567,0 1.22823,0.457649 1.41386,1.2623809 0.0744,0.3224335 0.0625,1.1181949 -0.0201,1.3484749 -0.0376,0.1047062 -0.14655,0.2434903 -0.24222,0.308409 -0.22444,0.1523078 -1.69194,0.5078687 -4.03264,0.9770677 -1.00219,0.2008909 -1.82883,0.3697036 -1.83699,0.3751393 -0.008,0.00544 -0.0505,0.4601121 -0.0941,1.0103916 -0.0939,1.185992 -0.10249,2.0105 -0.0238,2.293825 0.12621,0.454469 0.53524,0.7197 1.30216,0.844373 0.52116,0.08472 0.83092,0.110761 2.74684,0.230907 3.19064,0.200082 3.75254,0.307785 4.15536,0.796484 0.67559,0.819605 0.25962,2.264174 -0.74097,2.573225 -0.56613,0.174859 -2.04719,0.274287 -5.26375,0.35337 -0.68807,0.01692 -1.40401,0.04422 -1.59099,0.06066 l -0.33995,0.02991 v 1.490437 1.490438 l 0.12238,0.02753 c 0.0673,0.01514 0.91788,0.114109 1.89015,0.219933 2.43223,0.264726 2.75997,0.34014 3.10778,0.715105 0.49905,0.538 0.59023,1.436833 0.58951,5.811415 -6e-4,3.59256 -0.0605,4.182937 -0.46004,4.533738 -0.2906,0.255147 -0.73114,0.342122 -2.25818,0.445814 -1.06163,0.07209 -8.36201,0.111733 -9.60033,0.05213 z"
       id="path996" />
    <path
       style="fill:#3f5c9e;fill-opacity:1;stroke-width:0.0544785"
       d="M 10.300173,33.559695 C 9.4811974,32.880171 7.9577837,31.419378 5.843507,29.286222 3.1226775,26.541097 1.3701334,24.640945 1.1049919,24.148607 c -0.089775,-0.166702 -0.088528,-0.172765 0.088441,-0.42998 0.5140096,-0.747088 1.5192359,-1.823005 4.5089164,-4.826001 2.6189521,-2.630615 2.6402001,-2.650308 2.831547,-2.62419 0.1060361,0.01447 0.8047125,0.08919 1.5526137,0.166032 2.32165,0.238541 3.222884,0.440237 3.667458,0.820776 0.43502,0.372361 0.461749,0.599089 0.245399,2.081582 -0.544079,3.728179 -2.335114,13.636803 -2.582567,14.287655 -0.02606,0.06855 -0.120651,0.162518 -0.210199,0.208825 -0.299718,0.154991 -0.441421,0.112217 -0.906428,-0.273611 z"
       id="path998" />
    <path
       style="fill:#3f5c9e;fill-opacity:1;stroke-width:0.0544785"
       d="m 23.024389,46.191736 c -0.71427,-0.529111 -1.839462,-1.576865 -3.802402,-3.540712 -3.136891,-3.138339 -3.678288,-3.794057 -3.677945,-4.454581 6.4e-5,-0.124672 0.135695,-0.973218 0.301402,-1.885658 0.165707,-0.91244 0.645844,-3.604885 1.066971,-5.983211 1.423833,-8.041142 2.104705,-11.624416 2.239743,-11.787249 0.138379,-0.166862 0.411433,-0.233566 0.956108,-0.233566 0.942908,0 1.923484,0.144011 6.69763,0.983642 1.686733,0.296646 3.124178,0.539357 3.194325,0.539357 0.171619,0 0.253307,-0.14306 0.450352,-0.788696 0.414093,-1.356818 0.657516,-3.055236 0.498015,-3.474756 -0.02858,-0.07517 -0.108829,-0.173937 -0.17833,-0.219476 -0.185781,-0.121728 -2.779313,-0.624791 -7.711058,-1.4957 -0.852608,-0.150564 -2.809878,-0.495986 -4.34949,-0.767604 -4.844608,-0.854686 -5.223648,-0.955326 -5.223648,-1.38695 0,-0.389712 1.629297,-2.205422 5.028264,-5.6035656 2.048721,-2.0482243 3.501543,-3.4189727 4.300106,-4.0571801 0.589223,-0.4709035 0.564144,-0.4658848 0.933641,-0.186839 1.88889,1.4264982 18.825193,18.3250197 21.602611,21.5544187 0.534664,0.621673 0.527597,0.60097 0.313592,0.918599 -0.890737,1.322045 -7.06097,7.503603 -9.173328,9.190165 -0.394299,0.314819 -0.546698,0.405327 -0.682496,0.405327 -0.496608,0 -0.722624,-0.802632 -1.461873,-5.191445 -0.400393,-2.377067 -0.566953,-3.222123 -0.78642,-3.989947 -0.248066,-0.867882 -0.336685,-1.029695 -0.636574,-1.16235 -0.22009,-0.09736 -0.318761,-0.108492 -0.688286,-0.07767 -1.109686,0.09254 -3.123041,0.642198 -3.213229,0.877224 -0.07141,0.186097 0.206769,2.194272 0.734395,5.301551 0.210814,1.241516 0.503678,2.967129 0.650811,3.834694 0.451826,2.664191 0.659385,4.110731 0.667295,4.650587 0.0069,0.472407 -0.0059,0.542394 -0.149726,0.815893 -0.08651,0.164538 -0.220299,0.384829 -0.297302,0.489535 -1.177627,1.601315 -6.733026,6.962282 -7.21479,6.962282 -0.03829,0 -0.213056,-0.106252 -0.388364,-0.236115 z"
       id="path1000" />
    <path
       style="fill:#404851;fill-opacity:1;stroke-width:0.108957"
       d="m 73.658835,33.768179 c -1.890302,-1.852123 -2.04643,-2.244639 -1.267292,-3.18605 0.678783,-0.820153 0.631271,-0.855453 -1.146555,-0.851853 -0.83656,0.0017 -2.784064,0.04401 -4.327788,0.09403 l -2.80677,0.09095 -0.865939,1.735856 c -1.571152,3.149518 -1.864812,3.431215 -3.142176,3.014163 -0.39214,-0.128032 -0.852498,-0.361359 -1.023018,-0.518506 -0.292949,-0.269974 -0.307234,-0.32469 -0.259192,-0.992828 0.03474,-0.483161 0.206884,-1.114382 0.543539,-1.993075 0.319636,-0.834268 0.448889,-1.299439 0.367979,-1.324321 -0.0686,-0.02109 -0.834544,-0.09381 -1.70211,-0.161599 -3.725291,-0.291069 -4.133855,-0.49228 -4.133855,-2.035859 0,-1.095331 0.52789,-1.337106 2.92147,-1.338035 l 1.561649,-6.07e-4 -0.07199,-1.713374 C 58.15192,20.90134 58.029462,18.31604 57.903121,16.065037 c -0.127305,-2.268189 -0.124478,-2.361002 0.08273,-2.715793 0.289081,-0.494975 0.788354,-0.765036 1.540433,-0.833232 0.75948,-0.06887 1.339081,0.14108 1.615244,0.585085 0.555143,0.89254 0.596103,0.904598 4.176625,1.229564 1.346223,0.122182 2.629027,0.272515 2.850675,0.334074 0.561771,0.15602 0.848038,0.556315 0.848038,1.185834 0,0.667595 -0.399216,1.855809 -0.623515,1.855809 -0.09262,0 -1.441109,-0.07798 -2.996645,-0.173277 -2.882798,-0.17662 -3.777265,-0.14941 -3.777265,0.114908 0,0.267874 0.689067,0.391704 3.048434,0.547828 2.967693,0.196379 3.425249,0.288257 3.655799,0.73409 0.256718,0.496439 0.161038,1.516918 -0.175849,1.875517 -0.386051,0.410933 -0.822253,0.489311 -3.343545,0.600777 -1.269859,0.05614 -2.432506,0.133114 -2.583659,0.171051 -0.318873,0.08003 -0.358055,0.222556 -0.08445,0.30718 0.369123,0.114167 2.159099,0.280363 3.029076,0.281246 0.484307,5.44e-4 1.403674,0.0329 2.043038,0.07202 l 1.16248,0.07113 -0.03051,1.260631 -0.0305,1.26063 -2.556463,0.243298 c -3.457473,0.329048 -4.256794,0.534423 -3.569341,0.917103 0.31254,0.173978 5.821504,0.263385 9.07858,0.147338 l 2.191276,-0.07807 0.06295,-1.484251 c 0.03462,-0.816339 0.07657,-3.564777 0.09322,-6.107642 l 0.03027,-4.62339 -0.761499,-0.0781 c -0.418825,-0.04295 -2.156676,-0.20175 -3.861891,-0.35288 -3.838383,-0.340187 -6.034457,-0.585993 -6.367858,-0.712752 -0.31095,-0.118223 -0.484177,-0.669512 -0.485032,-1.543596 -7.29e-4,-0.747936 0.146376,-1.107478 0.523416,-1.2792691 0.155352,-0.070783 0.846253,-0.1986363 1.535335,-0.2841177 C 65.55297,9.4287578 65.785225,9.3170319 65.916308,8.7790784 66.009562,8.3963694 65.699072,8.0405446 65.154974,7.9065853 64.915645,7.8476615 63.275702,7.7563377 61.510654,7.7036435 57.789451,7.5925496 57.226566,7.4839528 56.877983,6.8098676 56.668185,6.4041641 56.681112,5.5233649 56.901481,5.208744 57.30798,4.6283853 57.50493,4.6044583 62.369386,4.544462 l 4.503051,-0.055539 0.538236,-0.8702853 c 0.296028,-0.4786569 0.614775,-0.955954 0.708324,-1.0606602 0.350669,-0.3924928 1.915785,-0.1178415 2.548123,0.4471525 0.272577,0.2435472 0.346187,0.4077581 0.390769,0.8717381 0.04101,0.4268144 0.114209,0.6105061 0.288876,0.7249525 0.176912,0.1159177 0.98888,0.1782857 3.330645,0.2558303 3.235736,0.1071472 3.726609,0.1807789 4.140211,0.6210386 0.287789,0.3063353 0.388355,1.0731665 0.211157,1.6100815 -0.264763,0.8022398 -1.020817,0.9276146 -5.622254,0.932327 l -3.279729,0.00336 -0.299493,0.8211576 c -0.176476,0.4838661 -0.259206,0.8600455 -0.201412,0.9158326 0.05394,0.052071 1.31723,0.2238177 2.8073,0.3816588 3.279022,0.347343 4.647972,0.567653 4.809599,0.774028 0.218038,0.278403 0.281669,3.251308 0.200367,9.361268 l -0.07984,5.999957 1.891574,0.0415 c 1.674762,0.03674 1.94211,0.06818 2.332475,0.274284 0.520003,0.274549 0.701937,0.616711 0.699745,1.316015 -0.0021,0.681049 -0.185046,1.012966 -0.695945,1.262892 -0.368403,0.180219 -0.800677,0.218305 -3.30357,0.291066 -1.600582,0.04653 -2.926756,0.130768 -2.985633,0.189645 -0.170776,0.170776 -0.0054,0.503619 0.752796,1.514849 1.189031,1.585907 1.271748,1.994994 0.542684,2.683896 -0.258257,0.24403 -0.745431,0.598903 -1.082607,0.788608 l -0.613049,0.344916 z"
       id="path1006" />
    <path
       style="fill:#404851;fill-opacity:1;stroke-width:0.108957"
       d="m 87.731375,21.514608 c -0.651058,-0.59503 -0.998526,-1.194113 -0.904885,-1.560145 0.157384,-0.615197 3.349514,-4.507523 5.664055,-6.90647 1.42769,-1.479755 2.031021,-1.977537 2.396847,-1.977537 0.591225,0 1.906078,1.237477 1.906078,1.793909 0,0.34658 -0.567818,1.415948 -1.188157,2.237647 -1.233343,1.633687 -4.610349,5.235054 -6.024541,6.424801 -0.832867,0.700683 -1.071103,0.699111 -1.849397,-0.01221 z"
       id="path1008" />
    <path
       style="fill:#404851;fill-opacity:1;stroke-width:0.108957"
       d="m 107.38843,14.450741 c -0.38994,-0.167052 -0.89123,-0.878196 -1.57913,-2.240193 -0.83003,-1.6434 -0.90531,-2.113162 -0.42956,-2.68052 0.37202,-0.4436489 1.12117,-0.852857 1.56136,-0.852857 0.39291,0 0.94601,0.5104543 1.5698,1.448775 0.5589,0.8407 1.22353,2.355514 1.22583,2.793866 0.005,0.906096 -1.50673,1.891468 -2.3483,1.530929 z"
       id="path1010" />
    <path
       style="fill:#404851;fill-opacity:1;stroke-width:0.108957"
       d="m 116.91882,17.840593 c -0.70031,-0.342558 -1.40332,-1.202569 -2.11056,-2.58189 -0.69872,-1.362712 -0.46117,-2.052986 0.87908,-2.554438 0.52465,-0.196298 0.66371,-0.210806 0.9367,-0.09773 0.63539,0.263189 2.48273,2.897218 2.64736,3.77473 0.0882,0.469944 -0.006,0.626664 -0.65988,1.09721 -0.52071,0.374771 -1.3181,0.545356 -1.6927,0.362118 z"
       id="path1012" />
    <path
       style="fill:#404851;fill-opacity:1;stroke-width:0.108957"
       d="m 100.33939,28.686797 c -0.505308,-0.05861 -0.818886,-0.154893 -0.958192,-0.2942 -0.421423,-0.421423 -0.729269,-3.248252 -0.814261,-7.477039 -0.06504,-3.236117 -0.007,-3.731316 0.47471,-4.046914 0.600075,-0.393185 2.322773,-0.132176 2.469813,0.374205 0.22512,0.775253 0.31393,1.403265 0.55833,3.948281 0.3709,3.862164 0.39194,4.021426 0.53149,4.021688 0.0666,1.24e-4 1.46723,0.07379 3.11261,0.163711 3.18965,0.174308 4.81099,0.315837 5.74805,0.501755 0.51246,0.101674 0.59879,0.158436 0.73431,0.48277 0.2959,0.708184 0.13344,1.892998 -0.29068,2.119982 -0.11209,0.05999 -0.68214,0.155597 -1.26679,0.212468 -1.26529,0.123079 -9.2252,0.117896 -10.29939,-0.0067 z"
       id="path1014" />
    <path
       d="m 55.986203,39.050346 q -0.04907,0.04151 -0.08722,0.233518 -0.03816,0.192003 -0.223513,1.785113 -0.179902,1.59311 -0.179902,2.547938 0,0.394384 0.09813,0.882177 0.02725,0.07265 0.02725,0.166057 0,0.280221 -0.17445,0.503361 -0.168999,0.223139 -0.436124,0.223139 -0.179901,0 -0.45793,-0.171246 -0.272578,-0.166058 -0.327093,-0.570821 -0.05452,-0.404765 -0.05452,-1.053425 0,-0.887367 0.218062,-2.641344 0.218062,-1.753977 0.261674,-1.790302 -0.152643,0 -1.221147,0.07784 -1.073955,0.07784 -1.248405,0.07784 -0.561509,0 -0.779571,-0.134921 -0.218062,-0.14011 -0.218062,-0.4359 0,-0.264654 0.228966,-0.404764 0.234416,-0.140111 1.177534,-0.140111 1.570046,0 3.080125,-0.197192 1.700883,-0.249086 2.578583,-0.249086 0.981279,0 1.193889,0.22314 0.21261,0.217949 0.21261,0.435899 0,0.50336 -0.468833,0.50336 -0.152643,0 -0.49064,-0.03113 -0.343447,-0.02594 -0.801377,-0.02594 -1.379241,0 -1.908042,0.186814 z"
       style="font-style:normal;font-variant:normal;font-weight:bold;font-stretch:normal;font-size:10.8929px;line-height:1.25;font-family:'Segoe Print';-inkscape-font-specification:'Segoe Print, Bold';font-variant-ligatures:normal;font-variant-caps:normal;font-variant-numeric:normal;font-variant-east-asian:normal;fill:#8c99a5;fill-opacity:1;stroke:none;stroke-width:0.453868"
       id="path1024" />
    <path
       d="m 60.423763,42.630951 0.09268,-0.166057 q 0.659638,-1.260996 1.417403,-2.044578 0.763217,-0.78877 1.488273,-0.78877 0.556057,0 0.904957,0.2906 0.35435,0.290599 0.35435,0.690174 0,0.249085 -0.119934,0.43071 -0.119934,0.176436 -0.332544,0.176436 -0.337996,0 -0.616025,-0.264653 -0.196256,-0.171247 -0.310739,-0.171247 -0.408866,0 -1.368338,1.209103 -0.959473,1.209103 -1.155729,2.719184 -0.05997,0.435899 -0.267126,0.607146 -0.207158,0.176436 -0.561509,0.176436 -0.376157,0 -0.534251,-0.404764 -0.158096,-0.409954 -0.158096,-1.333646 0,-0.378817 0.02181,-1.022288 0.0218,-0.607147 0.125385,-1.484135 0.02725,-0.228329 0.03816,-0.358061 0.04906,-0.508549 0.109031,-0.695363 0.06541,-0.192004 0.294384,-0.358061 0.228964,-0.166057 0.506994,-0.166057 0.294383,0 0.447027,0.160868 0.152643,0.160868 0.152643,0.352871 0,0.243896 -0.24532,1.01191 -0.08722,0.264653 -0.147192,0.633093 z"
       style="font-style:normal;font-variant:normal;font-weight:bold;font-stretch:normal;font-size:10.8929px;line-height:1.25;font-family:'Segoe Print';-inkscape-font-specification:'Segoe Print, Bold';font-variant-ligatures:normal;font-variant-caps:normal;font-variant-numeric:normal;font-variant-east-asian:normal;fill:#8c99a5;fill-opacity:1;stroke:none;stroke-width:0.453868"
       id="path1026" />
    <path
       d="m 68.671958,43.305558 q -0.523349,0.908123 -1.215697,1.44262 -0.686894,0.534496 -1.395595,0.534496 -0.41977,0 -0.850442,-0.420332 -0.425221,-0.420331 -0.425221,-1.292132 0,-0.617524 0.327093,-1.862951 0.28348,-1.027478 0.28348,-1.561974 0.218062,-0.4359 0.681444,-0.4359 0.31619,0 0.501543,0.202382 0.190804,0.197192 0.190804,0.399575 0,0.368439 -0.272578,1.048235 -0.158094,0.404763 -0.343448,1.146831 -0.1799,0.736878 -0.1799,0.944449 0,0.690175 0.299835,0.690175 0.474285,0 1.281114,-0.86661 0.806829,-0.866611 1.052149,-1.774734 0.245319,-0.887368 0.436124,-1.162399 0.190804,-0.275033 0.539703,-0.275033 0.566961,0 0.566961,0.601957 0,0.08822 -0.09268,0.352871 -0.321642,0.918503 -0.321642,2.070524 0,1.349213 0.479737,1.613867 0.158095,0.08822 0.158095,0.217949 0,0.186814 -0.27803,0.352871 -0.278029,0.166057 -0.528799,0.166057 -0.430673,0 -0.66509,-0.57601 -0.228964,-0.581199 -0.228963,-1.556784 z"
       style="font-style:normal;font-variant:normal;font-weight:bold;font-stretch:normal;font-size:10.8929px;line-height:1.25;font-family:'Segoe Print';-inkscape-font-specification:'Segoe Print, Bold';font-variant-ligatures:normal;font-variant-caps:normal;font-variant-numeric:normal;font-variant-east-asian:normal;fill:#8c99a5;fill-opacity:1;stroke:none;stroke-width:0.453868"
       id="path1028" />
    <path
       d="m 73.845477,40.991137 q -0.04906,0 -0.310738,1.15721 -0.256223,1.157211 -0.256223,1.401106 0,0.425522 0.09268,0.596768 0.09813,0.166057 0.316189,0.166057 0.305287,0 0.583317,-0.0986 0.28348,-0.103784 0.74141,-0.456656 0.283481,-0.223139 0.479737,-0.223139 0.158094,0 0.25077,0.08822 0.09813,0.08303 0.09813,0.197194 0,0.456656 -0.774121,1.037856 -0.774119,0.57601 -1.635464,0.57601 -0.719605,0 -1.101213,-0.404764 -0.376157,-0.404764 -0.376157,-1.162399 0,-0.700553 0.550607,-2.797023 -0.348899,0.03632 -0.485188,0.03632 h -0.114483 q -0.250771,0 -0.512445,-0.155678 -0.256223,-0.155679 -0.256223,-0.498172 0,-0.435899 0.517897,-0.435899 l 1.166631,-0.04151 q 0.228966,-0.627904 0.485188,-1.645003 0.152644,-0.633092 0.692347,-0.633092 0.299835,0 0.468833,0.176435 0.168998,0.171246 0.168998,0.384007 0,0.08303 -0.463382,1.603488 1.733593,-0.145299 1.902591,-0.145299 0.288933,0 0.381608,0.08303 0.09268,0.07784 0.09268,0.306169 0,0.461846 -0.823184,0.586388 z"
       style="font-style:normal;font-variant:normal;font-weight:bold;font-stretch:normal;font-size:10.8929px;line-height:1.25;font-family:'Segoe Print';-inkscape-font-specification:'Segoe Print, Bold';font-variant-ligatures:normal;font-variant-caps:normal;font-variant-numeric:normal;font-variant-east-asian:normal;fill:#8c99a5;fill-opacity:1;stroke:none;stroke-width:0.453868"
       id="path1030" />
    <path
       d="m 78.070428,42.812576 q 0.904958,-1.613867 1.559143,-2.195066 0.659637,-0.58639 1.330178,-0.58639 0.463381,0 0.768668,0.306169 0.310739,0.300978 0.452479,1.577541 0.05997,0.607146 0.152644,0.980775 0.09268,0.373627 0.207158,0.664227 0.114483,0.285411 0.327093,0.539686 0.163547,0.202381 0.163547,0.389196 0,0.186814 -0.190805,0.342493 -0.185352,0.155678 -0.430672,0.155678 -0.485188,0 -0.861344,-0.503361 -0.376157,-0.503359 -0.447028,-1.390727 -0.08722,-1.08456 -0.190804,-1.385538 -0.09813,-0.300979 -0.332545,-0.300979 -0.316189,0 -1.232049,1.203914 -0.910409,1.198724 -1.313824,1.920034 -0.25077,0.544874 -0.387059,0.705742 -0.136289,0.160868 -0.337997,0.160868 -0.332544,0 -0.539703,-0.155678 -0.207158,-0.155679 -0.207158,-0.441089 0,-0.140111 0.147191,-0.876989 0.556058,-2.786644 0.910409,-5.93135 0.08722,-0.757634 0.332544,-1.043045 0.250771,-0.2906 0.45793,-0.2906 0.288933,0 0.501543,0.212761 0.21261,0.212761 0.21261,0.591578 0,0.581199 -0.147191,1.338835 -0.147192,0.757635 -0.550607,2.418205 -0.24532,1.001532 -0.354351,1.59311 z"
       style="font-style:normal;font-variant:normal;font-weight:bold;font-stretch:normal;font-size:10.8929px;line-height:1.25;font-family:'Segoe Print';-inkscape-font-specification:'Segoe Print, Bold';font-variant-ligatures:normal;font-variant-caps:normal;font-variant-numeric:normal;font-variant-east-asian:normal;fill:#8c99a5;fill-opacity:1;stroke:none;stroke-width:0.453868"
       id="path1032" />
    <path
       d="m 94.3433,43.897136 q 0.572413,0.384007 1.166632,0.384007 0.21261,0 0.517897,-0.108976 0.04906,-0.01557 0.114483,-0.01557 0.327093,0 0.327093,0.415143 0,0.233517 -0.327093,0.555252 -0.321641,0.316547 -0.80683,0.316547 -1.046697,0 -2.017073,-0.695364 -1.210244,0.825096 -2.57313,0.825096 -0.975828,0 -1.58095,-0.534496 -0.59967,-0.539686 -0.59967,-1.406296 0,-1.380349 1.782656,-2.45453 0.125386,-0.07265 0.125386,-0.181625 0,-0.06746 -0.04906,-0.197192 -0.267125,-0.690175 -0.267125,-1.30251 0,-0.902935 0.56151,-1.494514 0.566961,-0.591578 1.433757,-0.591578 0.708701,0 1.123018,0.498172 0.41977,0.49817 0.41977,1.141641 0,1.079371 -1.433757,2.127606 -0.17445,0.124543 -0.17445,0.254275 0,0.269843 0.577864,0.980774 0.577865,0.710932 0.872248,0.918503 0.654186,-0.664228 0.834087,-1.292131 l -0.201708,-0.02076 q -0.49609,-0.03632 -0.67054,-0.202382 -0.168998,-0.171246 -0.168998,-0.456656 0,-0.197192 0.17445,-0.352871 0.17445,-0.160868 0.343447,-0.160868 0.136289,0 0.523349,0.108975 0.38706,0.114164 0.84499,0.114164 0.425221,0 0.872248,-0.0519 0.441575,-0.0519 0.594219,-0.0519 0.42522,0 0.42522,0.326926 0,0.607145 -0.866796,0.669417 -0.316189,0.02594 -0.430672,0.07784 -0.114483,0.04671 -0.190804,0.186814 -0.583316,1.058613 -1.275663,1.670949 z m -2.725775,-3.414548 q 0.888604,-0.674607 0.888604,-1.401106 0,-0.269842 -0.141741,-0.467036 -0.136289,-0.202381 -0.332545,-0.202381 -0.250771,0 -0.447026,0.28541 -0.190804,0.285411 -0.190804,0.674607 0,0.586388 0.223512,1.110506 z m 0.888604,3.554658 q -0.866797,-0.840663 -1.537338,-1.997873 -1.030342,0.674607 -1.030342,1.546406 0,0.42552 0.31619,0.664228 0.316189,0.238707 0.866796,0.238707 0.697798,0 1.384694,-0.451468 z"
       style="font-style:normal;font-variant:normal;font-weight:bold;font-stretch:normal;font-size:10.8929px;line-height:1.25;font-family:'Segoe Print';-inkscape-font-specification:'Segoe Print, Bold';font-variant-ligatures:normal;font-variant-caps:normal;font-variant-numeric:normal;font-variant-east-asian:normal;fill:#8c99a5;fill-opacity:1;stroke:none;stroke-width:0.453868"
       id="path1034" />
    <path
       d="m 104.59766,40.057067 q -0.11993,0.472225 -0.15264,0.752446 0,0.150489 -0.10903,0.773203 -0.1799,1.110506 -0.1799,1.51527 0,0.684985 0.0872,1.349213 0.0654,0.482604 -0.20715,0.705743 -0.27258,0.21795 -0.54516,0.21795 -0.38706,0 -0.55061,-0.316547 -0.16355,-0.321735 -0.16355,-1.110506 0,-0.487792 0.25623,-2.324798 l 0.29983,-2.029009 q 0.0927,-0.446278 0.13629,-0.830285 0.0654,-0.565632 0.1581,-0.695364 0.0981,-0.134921 0.34344,-0.280222 0.24533,-0.150489 0.37071,-0.150489 0.31619,0 0.47973,0.243897 0.16901,0.243896 0.16901,0.596767 z"
       style="font-style:normal;font-variant:normal;font-weight:bold;font-stretch:normal;font-size:10.8929px;line-height:1.25;font-family:'Segoe Print';-inkscape-font-specification:'Segoe Print, Bold';font-variant-ligatures:normal;font-variant-caps:normal;font-variant-numeric:normal;font-variant-east-asian:normal;fill:#3f5c9e;fill-opacity:1;stroke:none;stroke-width:0.453868"
       id="path1036" />
    <path
       d="m 110.61072,44.447199 q -0.26167,-0.467034 -0.38161,-1.743598 -0.11993,-1.328457 -0.53425,-1.328457 -0.39251,0 -1.35743,1.385539 -0.96493,1.380349 -1.18844,2.039388 -0.0491,0.197192 -0.18536,0.326924 -0.13083,0.129732 -0.26167,0.129732 -0.82864,0 -0.82864,-0.72131 0,-0.243896 0.16356,-1.110506 0.2126,-1.120885 0.2126,-2.739941 0,-0.243896 0.22352,-0.518928 0.22351,-0.280221 0.47428,-0.280221 0.31619,0 0.48519,0.150489 0.169,0.150489 0.169,0.799149 0,0.492982 -0.31074,1.909656 1.18299,-2.636156 2.63855,-2.636156 1.26476,0 1.48282,1.894089 0.21806,1.930412 0.50154,1.930412 0.12538,0 0.28894,-0.05189 0.19625,-0.06227 0.31073,-0.06227 0.26168,0 0.26168,0.2906 0,0.264652 -0.35981,0.565631 -0.3598,0.295789 -0.90495,0.295789 -0.63238,0 -0.90496,-0.524118 z"
       style="font-style:normal;font-variant:normal;font-weight:bold;font-stretch:normal;font-size:10.8929px;line-height:1.25;font-family:'Segoe Print';-inkscape-font-specification:'Segoe Print, Bold';font-variant-ligatures:normal;font-variant-caps:normal;font-variant-numeric:normal;font-variant-east-asian:normal;fill:#3f5c9e;fill-opacity:1;stroke:none;stroke-width:0.453868"
       id="path1038" />
    <path
       d="m 115.9805,43.886757 q -0.0218,-0.280221 -0.93767,-0.684985 -1.12302,-0.513739 -1.43375,-0.882178 -0.31074,-0.373629 -0.31074,-0.809528 0,-0.918503 1.0794,-1.603488 1.08486,-0.690175 2.02252,-0.690175 0.92132,0 0.92132,0.762824 0,0.202383 -0.21261,0.36325 -0.20716,0.160868 -0.35435,0.160868 -0.06,0 -0.21261,-0.07265 -0.15264,-0.07265 -0.23441,-0.07265 -0.4852,0 -1.06851,0.311357 -0.58332,0.311357 -0.58332,0.7265 0,0.202382 0.20716,0.394385 0.20716,0.186814 0.84499,0.472225 0.94312,0.425521 1.24295,0.768013 0.29984,0.342493 0.29984,0.757636 0,0.757635 -1.0794,1.266184 -1.07396,0.50336 -2.41504,0.50336 -0.98674,0 -0.98674,-0.679795 0,-0.249086 0.20717,-0.425522 0.20715,-0.176435 0.46338,-0.176435 0.10357,0 0.32164,0.07265 0.21806,0.07784 0.40342,0.07784 0.51243,0 1.07395,-0.155678 0.56151,-0.155679 0.74141,-0.384007 z"
       style="font-style:normal;font-variant:normal;font-weight:bold;font-stretch:normal;font-size:10.8929px;line-height:1.25;font-family:'Segoe Print';-inkscape-font-specification:'Segoe Print, Bold';font-variant-ligatures:normal;font-variant-caps:normal;font-variant-numeric:normal;font-variant-east-asian:normal;fill:#3f5c9e;fill-opacity:1;stroke:none;stroke-width:0.453868"
       id="path1040" />
    <path
       d="m 121.9663,43.305558 q -0.52335,0.908123 -1.21569,1.44262 -0.6869,0.534496 -1.39561,0.534496 -0.41976,0 -0.85043,-0.420332 -0.42523,-0.420331 -0.42523,-1.292132 0,-0.617524 0.3271,-1.862951 0.28348,-1.027478 0.28348,-1.561974 0.21806,-0.4359 0.68144,-0.4359 0.31619,0 0.50155,0.202382 0.1908,0.197192 0.1908,0.399575 0,0.368439 -0.27258,1.048235 -0.1581,0.404763 -0.34345,1.146831 -0.1799,0.736878 -0.1799,0.944449 0,0.690175 0.29984,0.690175 0.47428,0 1.28111,-0.86661 0.80683,-0.866611 1.05215,-1.774734 0.24532,-0.887368 0.43613,-1.162399 0.19079,-0.275033 0.5397,-0.275033 0.56696,0 0.56696,0.601957 0,0.08822 -0.0927,0.352871 -0.32164,0.918503 -0.32164,2.070524 0,1.349213 0.47974,1.613867 0.15809,0.08822 0.15809,0.217949 0,0.186814 -0.27802,0.352871 -0.27803,0.166057 -0.52881,0.166057 -0.43066,0 -0.66508,-0.57601 -0.22897,-0.581199 -0.22897,-1.556784 z"
       style="font-style:normal;font-variant:normal;font-weight:bold;font-stretch:normal;font-size:10.8929px;line-height:1.25;font-family:'Segoe Print';-inkscape-font-specification:'Segoe Print, Bold';font-variant-ligatures:normal;font-variant-caps:normal;font-variant-numeric:normal;font-variant-east-asian:normal;fill:#3f5c9e;fill-opacity:1;stroke:none;stroke-width:0.453868"
       id="path1042" />
    <path
       d="m 126.27848,42.630951 0.0926,-0.166057 q 0.65964,-1.260996 1.4174,-2.044578 0.76322,-0.78877 1.48828,-0.78877 0.55605,0 0.90495,0.2906 0.35435,0.290599 0.35435,0.690174 0,0.249085 -0.11994,0.43071 -0.11993,0.176436 -0.33253,0.176436 -0.33801,0 -0.61604,-0.264653 -0.19624,-0.171247 -0.31073,-0.171247 -0.40887,0 -1.36834,1.209103 -0.95947,1.209103 -1.15573,2.719184 -0.06,0.435899 -0.26712,0.607146 -0.20716,0.176436 -0.56151,0.176436 -0.37616,0 -0.53425,-0.404764 -0.1581,-0.409954 -0.1581,-1.333646 0,-0.378817 0.0218,-1.022288 0.0218,-0.607147 0.12538,-1.484135 0.0273,-0.228329 0.0381,-0.358061 0.0491,-0.508549 0.10904,-0.695363 0.0654,-0.192004 0.29437,-0.358061 0.22897,-0.166057 0.507,-0.166057 0.29439,0 0.44703,0.160868 0.15264,0.160868 0.15264,0.352871 0,0.243896 -0.24532,1.01191 -0.0872,0.264653 -0.14719,0.633093 z"
       style="font-style:normal;font-variant:normal;font-weight:bold;font-stretch:normal;font-size:10.8929px;line-height:1.25;font-family:'Segoe Print';-inkscape-font-specification:'Segoe Print, Bold';font-variant-ligatures:normal;font-variant-caps:normal;font-variant-numeric:normal;font-variant-east-asian:normal;fill:#3f5c9e;fill-opacity:1;stroke:none;stroke-width:0.453868"
       id="path1044" />
    <path
       d="m 134.31405,43.466425 q -1.43375,1.800681 -2.76939,1.800681 -0.49063,0 -0.84498,-0.368439 -0.35435,-0.368439 -0.35435,-0.93926 0,-1.375159 1.28656,-2.926755 1.28657,-1.556785 2.59494,-1.556785 0.66509,0 0.87225,0.638282 0.62692,0 0.62692,0.456657 0,0.21795 -0.11993,0.788771 -0.21806,1.068992 -0.21806,1.707274 0,0.664227 0.0927,0.93407 0.0981,0.269843 0.14174,0.352871 0.0437,0.08303 0.26167,0.176436 0.21806,0.0986 0.21806,0.275032 0,0.264653 -0.28348,0.441088 -0.27803,0.176437 -0.58332,0.176437 -1.02488,0 -0.92131,-1.95636 z m -0.32709,-2.880051 q -0.5506,0 -1.43376,1.162399 -0.87769,1.15721 -0.87769,1.966738 0,0.425521 0.18534,0.425521 0.64329,0 1.58096,-1.08456 0.94312,-1.08975 0.94312,-1.904467 0,-0.259464 -0.12539,-0.409953 -0.11994,-0.155678 -0.27258,-0.155678 z"
       style="font-style:normal;font-variant:normal;font-weight:bold;font-stretch:normal;font-size:10.8929px;line-height:1.25;font-family:'Segoe Print';-inkscape-font-specification:'Segoe Print, Bold';font-variant-ligatures:normal;font-variant-caps:normal;font-variant-numeric:normal;font-variant-east-asian:normal;fill:#3f5c9e;fill-opacity:1;stroke:none;stroke-width:0.453868"
       id="path1046" />
    <path
       d="m 141.69,44.447199 q -0.26167,-0.467034 -0.3816,-1.743598 -0.11994,-1.328457 -0.53426,-1.328457 -0.39251,0 -1.35744,1.385539 -0.96491,1.380349 -1.18843,2.039388 -0.0491,0.197192 -0.18535,0.326924 -0.13084,0.129732 -0.26168,0.129732 -0.82863,0 -0.82863,-0.72131 0,-0.243896 0.16354,-1.110506 0.21261,-1.120885 0.21261,-2.739941 0,-0.243896 0.22351,-0.518928 0.22353,-0.280221 0.47429,-0.280221 0.31619,0 0.48519,0.150489 0.169,0.150489 0.169,0.799149 0,0.492982 -0.31074,1.909656 1.18298,-2.636156 2.63855,-2.636156 1.26475,0 1.48282,1.894089 0.21806,1.930412 0.50155,1.930412 0.12538,0 0.28892,-0.05189 0.19626,-0.06227 0.31074,-0.06227 0.26168,0 0.26168,0.2906 0,0.264652 -0.3598,0.565631 -0.35981,0.295789 -0.90497,0.295789 -0.63238,0 -0.90495,-0.524118 z"
       style="font-style:normal;font-variant:normal;font-weight:bold;font-stretch:normal;font-size:10.8929px;line-height:1.25;font-family:'Segoe Print';-inkscape-font-specification:'Segoe Print, Bold';font-variant-ligatures:normal;font-variant-caps:normal;font-variant-numeric:normal;font-variant-east-asian:normal;fill:#3f5c9e;fill-opacity:1;stroke:none;stroke-width:0.453868"
       id="path1048" />
    <path
       d="m 146.1003,45.490245 q -0.8995,0 -1.36834,-0.467035 -0.46883,-0.467036 -0.46883,-1.297321 0,-1.307699 1.11757,-2.828158 1.11757,-1.52046 2.19153,-1.52046 0.51789,0 0.88314,0.492982 0.36526,0.487793 0.36526,1.017099 0,0.498171 -0.19626,0.674607 -0.1908,0.171246 -0.3707,0.171246 -0.52881,0 -0.61603,-0.695364 -0.0654,-0.508549 -0.26712,-0.508549 -0.42523,0 -1.12302,1.152021 -0.6978,1.15202 -0.6978,2.018629 0,0.700554 0.79593,0.700554 0.87769,0 1.77175,-0.591578 0.41976,-0.285411 0.66509,-0.285411 0.29983,0 0.29983,0.285411 0,0.399575 -0.96492,1.043046 -0.95947,0.638281 -2.01708,0.638281 z"
       style="font-style:normal;font-variant:normal;font-weight:bold;font-stretch:normal;font-size:10.8929px;line-height:1.25;font-family:'Segoe Print';-inkscape-font-specification:'Segoe Print, Bold';font-variant-ligatures:normal;font-variant-caps:normal;font-variant-numeric:normal;font-variant-east-asian:normal;fill:#3f5c9e;fill-opacity:1;stroke:none;stroke-width:0.453868"
       id="path1050" />
    <path
       d="m 155.00814,43.419721 q 0,0.539686 -0.95402,1.292132 -0.95402,0.747256 -2.15336,0.747256 -0.92131,0 -1.45012,-0.550063 -0.5288,-0.555254 -0.5288,-1.541217 0,-1.452999 1.07941,-2.724373 1.07941,-1.271374 2.30601,-1.271374 0.61057,0 0.98127,0.368439 0.37071,0.368438 0.37071,0.876989 0,0.902935 -0.91041,1.722841 -0.91041,0.814717 -2.33326,1.126074 -0.16355,0.03632 -0.16355,0.186814 0,0.249086 0.22897,0.477415 0.23442,0.223138 0.62147,0.223138 1.09577,0 2.17517,-1.074181 0.20716,-0.207571 0.40341,-0.207571 0.3271,0 0.3271,0.347681 z m -3.65799,-0.918502 q 0.86135,-0.166057 1.51553,-0.700553 0.65964,-0.534496 0.65964,-0.970396 0,-0.171246 -0.10358,-0.28541 -0.0981,-0.119354 -0.25622,-0.119354 -0.47429,0 -1.05215,0.664228 -0.57786,0.664228 -0.76322,1.411485 z"
       style="font-style:normal;font-variant:normal;font-weight:bold;font-stretch:normal;font-size:10.8929px;line-height:1.25;font-family:'Segoe Print';-inkscape-font-specification:'Segoe Print, Bold';font-variant-ligatures:normal;font-variant-caps:normal;font-variant-numeric:normal;font-variant-east-asian:normal;fill:#3f5c9e;fill-opacity:1;stroke:none;stroke-width:0.453868"
       id="path1052" />
    <path
       d="m 162.66211,45.562895 q -0.92132,0 -1.63547,-0.840663 -0.71415,-0.845853 -0.71415,-1.7436 0,-1.058613 0.68145,-2.376691 0.68144,-1.318077 1.75539,-2.153551 1.07941,-0.835475 2.25149,-0.835475 0.91041,0 1.49917,0.207571 0.59422,0.207572 1.09031,0.612335 0.50155,0.399576 0.6651,0.830286 0.169,0.425521 0.169,1.172778 0,0.659038 -0.44703,1.603488 -0.44157,0.939259 -1.29202,1.774734 -0.84499,0.835475 -1.72269,1.292131 -0.87769,0.456657 -2.30055,0.456657 z m -0.97038,-2.630966 q 0,0.638281 0.39796,1.063803 0.39797,0.425521 0.91586,0.425521 1.46102,0 2.74213,-1.333645 1.28112,-1.338835 1.28112,-2.838538 0,-0.529306 -0.21262,-0.851042 -0.2126,-0.326924 -0.72505,-0.539685 -0.50699,-0.21795 -1.09031,-0.21795 -1.05214,0 -2.18062,1.447809 -1.12847,1.44781 -1.12847,2.843727 z"
       style="font-style:normal;font-variant:normal;font-weight:bold;font-stretch:normal;font-size:10.8929px;line-height:1.25;font-family:'Segoe Print';-inkscape-font-specification:'Segoe Print, Bold';font-variant-ligatures:normal;font-variant-caps:normal;font-variant-numeric:normal;font-variant-east-asian:normal;fill:#8c99a5;fill-opacity:1;stroke:none;stroke-width:0.453868"
       id="path1054" />
    <path
       d="m 170.82309,42.56349 -0.0927,0.928881 q -0.0437,0.446279 -0.0437,0.882178 0,0.394386 0.0764,0.913314 -0.0545,0.181625 -0.27258,0.311357 -0.21806,0.129732 -0.45793,0.129732 -0.74686,0 -0.74686,-0.902935 0,-0.399575 0.23441,-1.909655 0.16355,-1.08456 0.16355,-1.613868 0,-0.03113 -0.0654,-0.07265 -0.37615,-0.228329 -0.37615,-0.4359 0,-0.269843 0.41976,-0.586389 0.20171,-0.150489 0.24532,-0.347682 0.0491,-0.202382 0.13629,-0.633092 0.29438,-1.655381 0.91041,-2.350744 0.62148,-0.700554 1.5755,-0.700554 0.55606,0 0.93767,0.347682 0.38705,0.342493 0.38705,0.851042 0,0.456657 -0.22351,0.949639 -0.21806,0.487793 -0.57786,0.487793 -0.1581,0 -0.26712,-0.09341 -0.10904,-0.0986 -0.10904,-0.254275 l 0.0327,-0.451467 q 0,-0.809528 -0.35435,-0.809528 -0.44157,0 -0.82864,1.058613 -0.3816,1.053424 -0.3816,1.795492 0,0.07784 0.10357,0.07784 1.12848,0 1.59185,-0.01038 0.46884,-0.01038 0.46884,0.342493 0,0.342492 -0.56697,0.508549 -0.5615,0.160868 -1.18297,0.160868 -0.41977,0.03632 -0.54516,0.06746 -0.13084,0.768014 -0.1908,1.354403 z"
       style="font-style:normal;font-variant:normal;font-weight:bold;font-stretch:normal;font-size:10.8929px;line-height:1.25;font-family:'Segoe Print';-inkscape-font-specification:'Segoe Print, Bold';font-variant-ligatures:normal;font-variant-caps:normal;font-variant-numeric:normal;font-variant-east-asian:normal;fill:#8c99a5;fill-opacity:1;stroke:none;stroke-width:0.453868"
       id="path1056" />
    <path
       d="m 174.9608,42.56349 -0.0926,0.928881 q -0.0437,0.446279 -0.0437,0.882178 0,0.394386 0.0764,0.913314 -0.0545,0.181625 -0.27258,0.311357 -0.21807,0.129732 -0.45793,0.129732 -0.74686,0 -0.74686,-0.902935 0,-0.399575 0.23441,-1.909655 0.16355,-1.08456 0.16355,-1.613868 0,-0.03113 -0.0654,-0.07265 -0.37615,-0.228329 -0.37615,-0.4359 0,-0.269843 0.41977,-0.586389 0.2017,-0.150489 0.24531,-0.347682 0.0491,-0.202382 0.13629,-0.633092 0.29439,-1.655381 0.91041,-2.350744 0.62148,-0.700554 1.5755,-0.700554 0.55605,0 0.93767,0.347682 0.38705,0.342493 0.38705,0.851042 0,0.456657 -0.22351,0.949639 -0.21806,0.487793 -0.57786,0.487793 -0.15809,0 -0.26713,-0.09341 -0.10903,-0.0986 -0.10903,-0.254275 l 0.0327,-0.451467 q 0,-0.809528 -0.35436,-0.809528 -0.44157,0 -0.82862,1.058613 -0.38162,1.053424 -0.38162,1.795492 0,0.07784 0.10359,0.07784 1.12847,0 1.59185,-0.01038 0.46883,-0.01038 0.46883,0.342493 0,0.342492 -0.56696,0.508549 -0.56151,0.160868 -1.18299,0.160868 -0.41977,0.03632 -0.54515,0.06746 -0.13084,0.768014 -0.19081,1.354403 z"
       style="font-style:normal;font-variant:normal;font-weight:bold;font-stretch:normal;font-size:10.8929px;line-height:1.25;font-family:'Segoe Print';-inkscape-font-specification:'Segoe Print, Bold';font-variant-ligatures:normal;font-variant-caps:normal;font-variant-numeric:normal;font-variant-east-asian:normal;fill:#8c99a5;fill-opacity:1;stroke:none;stroke-width:0.453868"
       id="path1058" />
    <path
       d="m 180.62497,37.493562 q 0,0.368438 -0.34891,0.64866 -0.34889,0.275032 -0.60511,0.275032 -0.3271,0 -0.58332,-0.259464 -0.25077,-0.259464 -0.25077,-0.518928 0,-0.373628 0.25077,-0.601957 0.25077,-0.233518 0.71961,-0.233518 0.36525,0 0.58876,0.207571 0.22897,0.202383 0.22897,0.482604 z m -2.6331,4.26559 v 0.0052 q 0.17445,-0.944449 0.17445,-1.079371 0,-0.384006 0.17445,-0.64347 0.1799,-0.259465 0.49609,-0.259465 0.3707,0 0.57786,0.166058 0.20716,0.166056 0.20716,0.373628 0,0.207571 -0.20171,0.856231 l -0.0327,0.114165 q -0.29984,1.001531 -0.35981,1.634623 -0.06,0.633093 -0.06,1.022289 0,0.316546 0.11449,0.845853 0.0163,0.09341 0.0163,0.155678 0,0.119353 -0.23986,0.321735 -0.23442,0.202383 -0.507,0.202383 -0.7196,0 -0.7196,-1.037857 0,-0.882178 0.26167,-2.148362 0.0545,-0.280221 0.0981,-0.529307 z"
       style="font-style:normal;font-variant:normal;font-weight:bold;font-stretch:normal;font-size:10.8929px;line-height:1.25;font-family:'Segoe Print';-inkscape-font-specification:'Segoe Print, Bold';font-variant-ligatures:normal;font-variant-caps:normal;font-variant-numeric:normal;font-variant-east-asian:normal;fill:#8c99a5;fill-opacity:1;stroke:none;stroke-width:0.453868"
       id="path1060" />
    <path
       d="m 182.41852,45.490245 q -0.8995,0 -1.36834,-0.467035 -0.46883,-0.467036 -0.46883,-1.297321 0,-1.307699 1.11757,-2.828158 1.11756,-1.52046 2.19152,-1.52046 0.5179,0 0.88315,0.492982 0.36526,0.487793 0.36526,1.017099 0,0.498171 -0.19626,0.674607 -0.19081,0.171246 -0.37071,0.171246 -0.5288,0 -0.61602,-0.695364 -0.0654,-0.508549 -0.26713,-0.508549 -0.42522,0 -1.12301,1.152021 -0.6978,1.15202 -0.6978,2.018629 0,0.700554 0.79592,0.700554 0.8777,0 1.77175,-0.591578 0.41977,-0.285411 0.6651,-0.285411 0.29983,0 0.29983,0.285411 0,0.399575 -0.96493,1.043046 -0.95947,0.638281 -2.01707,0.638281 z"
       style="font-style:normal;font-variant:normal;font-weight:bold;font-stretch:normal;font-size:10.8929px;line-height:1.25;font-family:'Segoe Print';-inkscape-font-specification:'Segoe Print, Bold';font-variant-ligatures:normal;font-variant-caps:normal;font-variant-numeric:normal;font-variant-east-asian:normal;fill:#8c99a5;fill-opacity:1;stroke:none;stroke-width:0.453868"
       id="path1062" />
    <path
       d="m 191.32635,43.419721 q 0,0.539686 -0.95402,1.292132 -0.95403,0.747256 -2.15336,0.747256 -0.92132,0 -1.45011,-0.550063 -0.52881,-0.555254 -0.52881,-1.541217 0,-1.452999 1.07941,-2.724373 1.07941,-1.271374 2.30601,-1.271374 0.61057,0 0.98127,0.368439 0.37071,0.368438 0.37071,0.876989 0,0.902935 -0.91041,1.722841 -0.91041,0.814717 -2.33327,1.126074 -0.16354,0.03632 -0.16354,0.186814 0,0.249086 0.22897,0.477415 0.23442,0.223138 0.62147,0.223138 1.09576,0 2.17517,-1.074181 0.20716,-0.207571 0.40341,-0.207571 0.3271,0 0.3271,0.347681 z m -3.65799,-0.918502 q 0.86135,-0.166057 1.51553,-0.700553 0.65964,-0.534496 0.65964,-0.970396 0,-0.171246 -0.10358,-0.28541 -0.0981,-0.119354 -0.25622,-0.119354 -0.47429,0 -1.05215,0.664228 -0.57786,0.664228 -0.76322,1.411485 z"
       style="font-style:normal;font-variant:normal;font-weight:bold;font-stretch:normal;font-size:10.8929px;line-height:1.25;font-family:'Segoe Print';-inkscape-font-specification:'Segoe Print, Bold';font-variant-ligatures:normal;font-variant-caps:normal;font-variant-numeric:normal;font-variant-east-asian:normal;fill:#8c99a5;fill-opacity:1;stroke:none;stroke-width:0.453868"
       id="path1064" />
  </g>
</svg>
